# MagicaVoxel @ Ephtracy

# group
g H4

# material
mtllib H4.mtl
usemtl palette

# normals
vn -1 0 0
vn 1 0 0
vn 0 0 1
vn 0 0 -1
vn 0 -1 0
vn 0 1 0

# texcoords
vt 0.958984 0.5
vt 0.962891 0.5

# verts
v -4 1 -0
v -4 1 -1
v -4 2 1
v -4 2 -0
v -4 3 2
v -4 3 1
v -4 3 -0
v -4 3 -1
v -4 4 2
v -4 4 -0
v -4 5 2
v -4 5 -1
v -3 1 -1
v -3 1 -2
v -3 3 -1
v -3 4 3
v -3 4 2
v -3 5 3
v -3 5 2
v -3 5 -1
v -3 5 -2
v -3 6 2
v -3 6 -1
v -2 0 -1
v -2 0 -2
v -2 1 -1
v -2 1 -2
v -2 1 -3
v -2 5 4
v -2 5 3
v -2 5 2
v -2 5 -1
v -2 5 -2
v -2 5 -3
v -2 6 4
v -2 6 2
v -2 6 -1
v -2 6 -2
v -2 7 2
v -2 7 -1
v 0 4 4
v 0 4 3
v 0 5 4
v 0 5 3
v 1 3 4
v 1 3 3
v 1 4 4
v 1 4 3
v 2 1 -1
v 2 1 -2
v 2 4 3
v 2 4 2
v 2 5 3
v 2 5 2
v 2 5 -1
v 2 5 -2
v 2 6 2
v 2 6 -1
v 3 1 -0
v 3 1 -1
v 3 2 1
v 3 2 -0
v 3 3 2
v 3 3 1
v 3 3 -0
v 3 3 -1
v 3 4 2
v 3 4 -0
v 3 5 2
v 3 5 -1
v -3 1 -0
v -3 1 -1
v -3 2 1
v -3 2 -0
v -3 3 2
v -3 3 1
v -3 3 -0
v -3 3 -1
v -3 4 2
v -3 4 -0
v -3 5 2
v -3 5 -1
v -2 1 -1
v -2 1 -2
v -2 4 3
v -2 4 2
v -2 5 3
v -2 5 2
v -2 5 -1
v -2 5 -2
v -2 6 2
v -2 6 -1
v 2 0 -1
v 2 0 -2
v 2 1 -1
v 2 1 -2
v 2 1 -3
v 2 3 4
v 2 3 3
v 2 4 3
v 2 5 3
v 2 5 2
v 2 5 -1
v 2 5 -2
v 2 5 -3
v 2 6 4
v 2 6 2
v 2 6 -1
v 2 6 -2
v 2 7 2
v 2 7 -1
v 3 1 -1
v 3 1 -2
v 3 3 -1
v 3 4 3
v 3 4 2
v 3 5 3
v 3 5 2
v 3 5 -1
v 3 5 -2
v 3 6 2
v 3 6 -1
v 4 1 -0
v 4 1 -1
v 4 2 1
v 4 2 -0
v 4 3 2
v 4 3 1
v 4 3 -0
v 4 3 -1
v 4 4 2
v 4 4 -0
v 4 5 2
v 4 5 -1
v -2 5 4
v -2 6 4
v -1 5 4
v -1 6 4
v 0 4 4
v 0 5 4
v 1 3 4
v 1 4 4
v 1 6 4
v 2 3 4
v 2 6 4
v -3 4 3
v -3 5 3
v -2 4 3
v -2 5 3
v 2 4 3
v 2 5 3
v 3 4 3
v 3 5 3
v -4 3 2
v -4 4 2
v -4 5 2
v -3 3 2
v -3 4 2
v -3 5 2
v -3 6 2
v -2 5 2
v -2 6 2
v -2 7 2
v -1 6 2
v -1 7 2
v 1 6 2
v 1 7 2
v 2 5 2
v 2 6 2
v 2 7 2
v 3 3 2
v 3 4 2
v 3 5 2
v 3 6 2
v 4 3 2
v 4 4 2
v 4 5 2
v -4 2 1
v -4 3 1
v -3 2 1
v -3 3 1
v 3 2 1
v 3 3 1
v 4 2 1
v 4 3 1
v -4 1 -0
v -4 2 -0
v -3 1 -0
v -3 2 -0
v 3 1 -0
v 3 2 -0
v 4 1 -0
v 4 2 -0
v -3 1 -1
v -3 3 -1
v -3 5 -1
v -2 0 -1
v -2 1 -1
v -2 5 -1
v -2 6 -1
v -1 0 -1
v -1 1 -1
v -1 5 -1
v -1 6 -1
v 1 0 -1
v 1 1 -1
v 1 5 -1
v 1 6 -1
v 2 0 -1
v 2 1 -1
v 2 5 -1
v 2 6 -1
v 3 1 -1
v 3 3 -1
v 3 5 -1
v -2 1 -2
v -2 5 -2
v -1 1 -2
v -1 5 -2
v 1 1 -2
v 1 5 -2
v 2 1 -2
v 2 5 -2
v 0 4 3
v 0 5 3
v 1 3 3
v 1 4 3
v 1 5 3
v 2 3 3
v 2 4 3
v 2 5 3
v -3 4 2
v -3 5 2
v -2 4 2
v -2 5 2
v -2 6 2
v -1 5 2
v -1 6 2
v 1 5 2
v 1 6 2
v 2 4 2
v 2 5 2
v 2 6 2
v 3 4 2
v 3 5 2
v -4 1 -1
v -4 3 -1
v -4 5 -1
v -3 1 -1
v -3 3 -1
v -3 5 -1
v -3 6 -1
v -2 5 -1
v -2 6 -1
v -2 7 -1
v -1 6 -1
v -1 7 -1
v 1 6 -1
v 1 7 -1
v 2 5 -1
v 2 6 -1
v 2 7 -1
v 3 1 -1
v 3 3 -1
v 3 5 -1
v 3 6 -1
v 4 1 -1
v 4 3 -1
v 4 5 -1
v -3 1 -2
v -3 5 -2
v -2 0 -2
v -2 1 -2
v -2 5 -2
v -2 6 -2
v -1 0 -2
v -1 1 -2
v -1 5 -2
v -1 6 -2
v 1 0 -2
v 1 1 -2
v 1 5 -2
v 1 6 -2
v 2 0 -2
v 2 1 -2
v 2 5 -2
v 2 6 -2
v 3 1 -2
v 3 5 -2
v -2 1 -3
v -2 5 -3
v -1 1 -3
v -1 5 -3
v 1 1 -3
v 1 5 -3
v 2 1 -3
v 2 5 -3
v -2 0 -1
v -1 0 -1
v 1 0 -1
v 2 0 -1
v -2 0 -2
v -1 0 -2
v 1 0 -2
v 2 0 -2
v -4 1 -0
v -3 1 -0
v 3 1 -0
v 4 1 -0
v -4 1 -1
v -3 1 -1
v -2 1 -1
v 2 1 -1
v 3 1 -1
v 4 1 -1
v -3 1 -2
v -2 1 -2
v -1 1 -2
v 1 1 -2
v 2 1 -2
v 3 1 -2
v -2 1 -3
v -1 1 -3
v 1 1 -3
v 2 1 -3
v -4 2 1
v -3 2 1
v 3 2 1
v 4 2 1
v -4 2 -0
v -3 2 -0
v 3 2 -0
v 4 2 -0
v 1 3 4
v 2 3 4
v 1 3 3
v 2 3 3
v -4 3 2
v -3 3 2
v 3 3 2
v 4 3 2
v -4 3 1
v -3 3 1
v 3 3 1
v 4 3 1
v 0 4 4
v 1 4 4
v -3 4 3
v -2 4 3
v 0 4 3
v 1 4 3
v 2 4 3
v 3 4 3
v -3 4 2
v -2 4 2
v 2 4 2
v 3 4 2
v -2 5 4
v -1 5 4
v 0 5 4
v -2 5 3
v 0 5 3
v 1 5 3
v 2 5 3
v -3 5 2
v -2 5 2
v -1 5 2
v 1 5 2
v 2 5 2
v 3 5 2
v -3 5 -1
v -2 5 -1
v -1 5 -1
v 1 5 -1
v 2 5 -1
v 3 5 -1
v -2 5 -2
v -1 5 -2
v 1 5 -2
v 2 5 -2
v -2 6 2
v -1 6 2
v 1 6 2
v 2 6 2
v -2 6 -1
v -1 6 -1
v 1 6 -1
v 2 6 -1
v -2 1 -1
v -1 1 -1
v 1 1 -1
v 2 1 -1
v -2 1 -2
v -1 1 -2
v 1 1 -2
v 2 1 -2
v -3 5 3
v -2 5 3
v 2 5 3
v 3 5 3
v -4 5 2
v -3 5 2
v -2 5 2
v 2 5 2
v 3 5 2
v 4 5 2
v -4 5 -1
v -3 5 -1
v -2 5 -1
v 2 5 -1
v 3 5 -1
v 4 5 -1
v -3 5 -2
v -2 5 -2
v -1 5 -2
v 1 5 -2
v 2 5 -2
v 3 5 -2
v -2 5 -3
v -1 5 -3
v 1 5 -3
v 2 5 -3
v -2 6 4
v -1 6 4
v 1 6 4
v 2 6 4
v -3 6 2
v -2 6 2
v -1 6 2
v 1 6 2
v 2 6 2
v 3 6 2
v -3 6 -1
v -2 6 -1
v -1 6 -1
v 1 6 -1
v 2 6 -1
v 3 6 -1
v -2 6 -2
v -1 6 -2
v 1 6 -2
v 2 6 -2
v -2 7 2
v -1 7 2
v 1 7 2
v 2 7 2
v -2 7 -1
v -1 7 -1
v 1 7 -1
v 2 7 -1

# faces
f 4/1/1 2/1/1 1/1/1
f 6/2/1 4/2/1 3/2/1
f 7/1/1 2/1/1 4/1/1
f 7/2/1 4/2/1 6/2/1
f 8/1/1 2/1/1 7/1/1
f 9/1/1 6/1/1 5/1/1
f 9/1/1 7/1/1 6/1/1
f 10/2/1 8/2/1 7/2/1
f 10/1/1 7/1/1 9/1/1
f 11/2/1 10/2/1 9/2/1
f 12/2/1 8/2/1 10/2/1
f 12/2/1 10/2/1 11/2/1
f 15/1/1 14/1/1 13/1/1
f 18/1/1 17/1/1 16/1/1
f 19/1/1 17/1/1 18/1/1
f 20/1/1 14/1/1 15/1/1
f 21/1/1 14/1/1 20/1/1
f 22/1/1 20/1/1 19/1/1
f 23/1/1 20/1/1 22/1/1
f 26/2/1 25/2/1 24/2/1
f 27/2/1 25/2/1 26/2/1
f 33/2/1 28/2/1 27/2/1
f 34/2/1 28/2/1 33/2/1
f 35/2/1 31/2/1 30/2/1
f 35/2/1 30/2/1 29/2/1
f 36/2/1 31/2/1 35/2/1
f 37/2/1 33/2/1 32/2/1
f 38/2/1 33/2/1 37/2/1
f 39/2/1 37/2/1 36/2/1
f 40/2/1 37/2/1 39/2/1
f 43/1/1 42/1/1 41/1/1
f 44/1/1 42/1/1 43/1/1
f 47/2/1 46/2/1 45/2/1
f 48/2/1 46/2/1 47/2/1
f 53/1/1 52/1/1 51/1/1
f 54/1/1 52/1/1 53/1/1
f 55/1/1 50/1/1 49/1/1
f 56/1/1 50/1/1 55/1/1
f 57/1/1 55/1/1 54/1/1
f 58/1/1 55/1/1 57/1/1
f 62/1/1 60/1/1 59/1/1
f 64/2/1 62/2/1 61/2/1
f 65/1/1 60/1/1 62/1/1
f 65/2/1 62/2/1 64/2/1
f 66/1/1 60/1/1 65/1/1
f 67/1/1 64/1/1 63/1/1
f 67/1/1 65/1/1 64/1/1
f 68/2/1 66/2/1 65/2/1
f 68/1/1 65/1/1 67/1/1
f 69/2/1 68/2/1 67/2/1
f 70/2/1 66/2/1 68/2/1
f 70/2/1 68/2/1 69/2/1
f 71/1/2 72/1/2 74/1/2
f 73/2/2 74/2/2 76/2/2
f 74/1/2 72/1/2 77/1/2
f 76/2/2 74/2/2 77/2/2
f 77/1/2 72/1/2 78/1/2
f 75/1/2 76/1/2 79/1/2
f 76/1/2 77/1/2 79/1/2
f 77/2/2 78/2/2 80/2/2
f 79/1/2 77/1/2 80/1/2
f 79/2/2 80/2/2 81/2/2
f 80/2/2 78/2/2 82/2/2
f 81/2/2 80/2/2 82/2/2
f 85/1/2 86/1/2 87/1/2
f 87/1/2 86/1/2 88/1/2
f 83/1/2 84/1/2 89/1/2
f 89/1/2 84/1/2 90/1/2
f 88/1/2 89/1/2 91/1/2
f 91/1/2 89/1/2 92/1/2
f 93/2/2 94/2/2 95/2/2
f 95/2/2 94/2/2 96/2/2
f 98/2/2 99/2/2 100/2/2
f 98/2/2 100/2/2 101/2/2
f 96/2/2 97/2/2 104/2/2
f 104/2/2 97/2/2 105/2/2
f 101/2/2 102/2/2 106/2/2
f 98/2/2 101/2/2 106/2/2
f 106/2/2 102/2/2 107/2/2
f 103/2/2 104/2/2 108/2/2
f 108/2/2 104/2/2 109/2/2
f 107/2/2 108/2/2 110/2/2
f 110/2/2 108/2/2 111/2/2
f 112/1/2 113/1/2 114/1/2
f 115/1/2 116/1/2 117/1/2
f 117/1/2 116/1/2 118/1/2
f 114/1/2 113/1/2 119/1/2
f 119/1/2 113/1/2 120/1/2
f 118/1/2 119/1/2 121/1/2
f 121/1/2 119/1/2 122/1/2
f 123/1/2 124/1/2 126/1/2
f 125/2/2 126/2/2 128/2/2
f 126/1/2 124/1/2 129/1/2
f 128/2/2 126/2/2 129/2/2
f 129/1/2 124/1/2 130/1/2
f 127/1/2 128/1/2 131/1/2
f 128/1/2 129/1/2 131/1/2
f 129/2/2 130/2/2 132/2/2
f 131/1/2 129/1/2 132/1/2
f 131/2/2 132/2/2 133/2/2
f 132/2/2 130/2/2 134/2/2
f 133/2/2 132/2/2 134/2/2
f 137/2/3 136/2/3 135/2/3
f 138/2/3 136/2/3 137/2/3
f 140/1/3 138/1/3 137/1/3
f 142/1/3 140/1/3 139/1/3
f 143/1/3 138/1/3 140/1/3
f 143/1/3 140/1/3 142/1/3
f 144/2/3 142/2/3 141/2/3
f 144/2/3 143/2/3 142/2/3
f 145/2/3 143/2/3 144/2/3
f 148/1/3 147/1/3 146/1/3
f 149/1/3 147/1/3 148/1/3
f 152/1/3 151/1/3 150/1/3
f 153/1/3 151/1/3 152/1/3
f 157/1/3 155/1/3 154/1/3
f 158/2/3 156/2/3 155/2/3
f 158/1/3 155/1/3 157/1/3
f 159/2/3 156/2/3 158/2/3
f 161/1/3 160/1/3 159/1/3
f 162/1/3 160/1/3 161/1/3
f 164/2/3 163/2/3 162/2/3
f 165/2/3 163/2/3 164/2/3
f 166/1/3 165/1/3 164/1/3
f 167/1/3 165/1/3 166/1/3
f 169/2/3 167/2/3 166/2/3
f 170/2/3 167/2/3 169/2/3
f 173/1/3 169/1/3 168/1/3
f 174/1/3 169/1/3 173/1/3
f 175/1/3 172/1/3 171/1/3
f 176/2/3 173/2/3 172/2/3
f 176/1/3 172/1/3 175/1/3
f 177/2/3 173/2/3 176/2/3
f 180/2/3 179/2/3 178/2/3
f 181/2/3 179/2/3 180/2/3
f 184/2/3 183/2/3 182/2/3
f 185/2/3 183/2/3 184/2/3
f 188/1/3 187/1/3 186/1/3
f 189/1/3 187/1/3 188/1/3
f 192/1/3 191/1/3 190/1/3
f 193/1/3 191/1/3 192/1/3
f 198/1/3 195/1/3 194/1/3
f 198/1/3 196/1/3 195/1/3
f 199/1/3 196/1/3 198/1/3
f 201/2/3 198/2/3 197/2/3
f 202/2/3 198/2/3 201/2/3
f 203/2/3 200/2/3 199/2/3
f 204/2/3 200/2/3 203/2/3
f 205/1/3 202/1/3 201/1/3
f 206/1/3 202/1/3 205/1/3
f 207/1/3 204/1/3 203/1/3
f 208/1/3 204/1/3 207/1/3
f 209/2/3 206/2/3 205/2/3
f 210/2/3 206/2/3 209/2/3
f 211/2/3 208/2/3 207/2/3
f 212/2/3 208/2/3 211/2/3
f 213/1/3 211/1/3 210/1/3
f 214/1/3 211/1/3 213/1/3
f 215/1/3 211/1/3 214/1/3
f 218/2/3 217/2/3 216/2/3
f 219/2/3 217/2/3 218/2/3
f 220/1/3 219/1/3 218/1/3
f 221/1/3 219/1/3 220/1/3
f 222/2/3 221/2/3 220/2/3
f 223/2/3 221/2/3 222/2/3
f 224/1/4 225/1/4 227/1/4
f 227/1/4 225/1/4 228/1/4
f 226/2/4 227/2/4 229/2/4
f 227/2/4 228/2/4 229/2/4
f 229/2/4 228/2/4 230/2/4
f 230/2/4 228/2/4 231/2/4
f 232/1/4 233/1/4 234/1/4
f 234/1/4 233/1/4 235/1/4
f 235/2/4 236/2/4 237/2/4
f 237/2/4 236/2/4 238/2/4
f 237/1/4 238/1/4 239/1/4
f 239/1/4 238/1/4 240/1/4
f 239/2/4 240/2/4 242/2/4
f 242/2/4 240/2/4 243/2/4
f 241/1/4 242/1/4 244/1/4
f 244/1/4 242/1/4 245/1/4
f 246/1/4 247/1/4 249/1/4
f 247/2/4 248/2/4 250/2/4
f 249/1/4 247/1/4 250/1/4
f 250/2/4 248/2/4 251/2/4
f 251/1/4 252/1/4 253/1/4
f 253/1/4 252/1/4 254/1/4
f 254/2/4 255/2/4 256/2/4
f 256/2/4 255/2/4 257/2/4
f 256/1/4 257/1/4 258/1/4
f 258/1/4 257/1/4 259/1/4
f 258/2/4 259/2/4 261/2/4
f 261/2/4 259/2/4 262/2/4
f 260/1/4 261/1/4 265/1/4
f 265/1/4 261/1/4 266/1/4
f 263/1/4 264/1/4 267/1/4
f 264/2/4 265/2/4 268/2/4
f 267/1/4 264/1/4 268/1/4
f 268/2/4 265/2/4 269/2/4
f 270/1/4 271/1/4 273/1/4
f 273/1/4 271/1/4 274/1/4
f 272/2/4 273/2/4 276/2/4
f 276/2/4 273/2/4 277/2/4
f 274/2/4 275/2/4 278/2/4
f 278/2/4 275/2/4 279/2/4
f 276/1/4 277/1/4 280/1/4
f 280/1/4 277/1/4 281/1/4
f 278/1/4 279/1/4 282/1/4
f 282/1/4 279/1/4 283/1/4
f 280/2/4 281/2/4 284/2/4
f 284/2/4 281/2/4 285/2/4
f 282/2/4 283/2/4 286/2/4
f 286/2/4 283/2/4 287/2/4
f 285/1/4 286/1/4 288/1/4
f 288/1/4 286/1/4 289/1/4
f 290/2/4 291/2/4 292/2/4
f 292/2/4 291/2/4 293/2/4
f 292/1/4 293/1/4 294/1/4
f 294/1/4 293/1/4 295/1/4
f 294/2/4 295/2/4 296/2/4
f 296/2/4 295/2/4 297/2/4
f 302/2/5 299/2/5 298/2/5
f 303/1/5 300/1/5 299/1/5
f 303/2/5 299/2/5 302/2/5
f 304/2/5 301/2/5 300/2/5
f 304/1/5 300/1/5 303/1/5
f 305/2/5 301/2/5 304/2/5
f 310/1/5 307/1/5 306/1/5
f 311/1/5 307/1/5 310/1/5
f 314/1/5 309/1/5 308/1/5
f 315/1/5 309/1/5 314/1/5
f 316/1/5 312/1/5 311/1/5
f 317/1/5 312/1/5 316/1/5
f 320/1/5 314/1/5 313/1/5
f 321/1/5 314/1/5 320/1/5
f 322/2/5 318/2/5 317/2/5
f 323/1/5 319/1/5 318/1/5
f 323/2/5 318/2/5 322/2/5
f 324/2/5 320/2/5 319/2/5
f 324/1/5 319/1/5 323/1/5
f 325/2/5 320/2/5 324/2/5
f 330/2/5 327/2/5 326/2/5
f 331/2/5 327/2/5 330/2/5
f 332/2/5 329/2/5 328/2/5
f 333/2/5 329/2/5 332/2/5
f 336/2/5 335/2/5 334/2/5
f 337/2/5 335/2/5 336/2/5
f 342/1/5 339/1/5 338/1/5
f 343/1/5 339/1/5 342/1/5
f 344/1/5 341/1/5 340/1/5
f 345/1/5 341/1/5 344/1/5
f 350/1/5 347/1/5 346/1/5
f 351/1/5 347/1/5 350/1/5
f 354/1/5 349/1/5 348/1/5
f 355/1/5 349/1/5 354/1/5
f 356/1/5 353/1/5 352/1/5
f 357/1/5 353/1/5 356/1/5
f 361/2/5 359/2/5 358/2/5
f 362/1/5 360/1/5 359/1/5
f 366/2/5 359/2/5 361/2/5
f 367/1/5 362/1/5 359/1/5
f 367/1/5 363/1/5 362/1/5
f 367/2/5 359/2/5 366/2/5
f 368/2/5 364/2/5 363/2/5
f 368/1/5 363/1/5 367/1/5
f 369/2/5 364/2/5 368/2/5
f 371/1/5 366/1/5 365/1/5
f 372/1/5 366/1/5 371/1/5
f 375/1/5 370/1/5 369/1/5
f 376/1/5 370/1/5 375/1/5
f 377/2/5 373/2/5 372/2/5
f 378/1/5 374/1/5 373/1/5
f 378/2/5 373/2/5 377/2/5
f 379/2/5 375/2/5 374/2/5
f 379/1/5 374/1/5 378/1/5
f 380/2/5 375/2/5 379/2/5
f 385/2/5 382/2/5 381/2/5
f 386/1/5 383/1/5 382/1/5
f 386/2/5 382/2/5 385/2/5
f 387/2/5 384/2/5 383/2/5
f 387/1/5 383/1/5 386/1/5
f 388/2/5 384/2/5 387/2/5
f 389/2/6 390/2/6 393/2/6
f 390/1/6 391/1/6 394/1/6
f 393/2/6 390/2/6 394/2/6
f 391/2/6 392/2/6 395/2/6
f 394/1/6 391/1/6 395/1/6
f 395/2/6 392/2/6 396/2/6
f 397/1/6 398/1/6 402/1/6
f 402/1/6 398/1/6 403/1/6
f 399/1/6 400/1/6 404/1/6
f 404/1/6 400/1/6 405/1/6
f 401/2/6 402/2/6 407/2/6
f 407/2/6 402/2/6 408/2/6
f 405/2/6 406/2/6 411/2/6
f 411/2/6 406/2/6 412/2/6
f 408/1/6 409/1/6 413/1/6
f 413/1/6 409/1/6 414/1/6
f 410/1/6 411/1/6 417/1/6
f 417/1/6 411/1/6 418/1/6
f 414/2/6 415/2/6 419/2/6
f 415/1/6 416/1/6 420/1/6
f 419/2/6 415/2/6 420/2/6
f 416/2/6 417/2/6 421/2/6
f 420/1/6 416/1/6 421/1/6
f 421/2/6 417/2/6 422/2/6
f 423/2/6 424/2/6 428/2/6
f 424/1/6 425/1/6 429/1/6
f 428/2/6 424/2/6 429/2/6
f 425/2/6 426/2/6 430/2/6
f 429/1/6 425/1/6 430/1/6
f 430/2/6 426/2/6 431/2/6
f 427/1/6 428/1/6 433/1/6
f 433/1/6 428/1/6 434/1/6
f 431/1/6 432/1/6 437/1/6
f 437/1/6 432/1/6 438/1/6
f 434/2/6 435/2/6 439/2/6
f 435/1/6 436/1/6 440/1/6
f 439/2/6 435/2/6 440/2/6
f 436/2/6 437/2/6 441/2/6
f 440/1/6 436/1/6 441/1/6
f 441/2/6 437/2/6 442/2/6
f 443/2/6 444/2/6 447/2/6
f 444/1/6 445/1/6 448/1/6
f 447/2/6 444/2/6 448/2/6
f 445/2/6 446/2/6 449/2/6
f 448/1/6 445/1/6 449/1/6
f 449/2/6 446/2/6 450/2/6
