# MagicaVoxel @ Ephtracy

# group
g Body

# material
mtllib Body.mtl
usemtl palette

# normals
vn -1 0 0
vn 1 0 0
vn 0 0 1
vn 0 0 -1
vn 0 -1 0
vn 0 1 0

# texcoords
vt 0.947266 0.5
vt 0.970703 0.5
vt 0.974609 0.5
vt 0.986328 0.5

# verts
v -4 8 1
v -4 8 -0
v -4 15 1
v -4 15 -0
v -3 18 2
v -3 18 -1
v -3 22 2
v -3 22 -1
v -2 0 2
v -2 0 -0
v -2 1 2
v -2 1 1
v -2 8 1
v -2 8 -0
v -2 9 2
v -2 9 1
v -2 9 -0
v -2 9 -1
v -2 15 1
v -2 15 -0
v -2 16 2
v -2 16 -1
v -2 17 2
v -2 17 -1
v -2 18 3
v -2 18 2
v -2 18 -1
v -2 18 -2
v -2 22 3
v -2 22 2
v -2 22 -1
v -2 22 -2
v -2 23 2
v -2 23 -1
v -1 16 1
v -1 16 -0
v -1 17 1
v -1 17 -0
v 1 0 2
v 1 0 -0
v 1 1 2
v 1 1 1
v 1 8 1
v 1 8 -0
v 3 8 1
v 3 8 -0
v 3 9 1
v 3 9 -0
v -3 8 1
v -3 8 -0
v -3 9 1
v -3 9 -0
v -1 0 2
v -1 0 -0
v -1 1 2
v -1 1 1
v -1 8 1
v -1 8 -0
v 1 16 1
v 1 16 -0
v 1 17 1
v 1 17 -0
v 2 0 2
v 2 0 -0
v 2 1 2
v 2 1 1
v 2 8 1
v 2 8 -0
v 2 9 2
v 2 9 1
v 2 9 -0
v 2 9 -1
v 2 15 1
v 2 15 -0
v 2 16 2
v 2 16 -1
v 2 17 2
v 2 17 -1
v 2 18 3
v 2 18 2
v 2 18 -1
v 2 18 -2
v 2 22 3
v 2 22 2
v 2 22 -1
v 2 22 -2
v 2 23 2
v 2 23 -1
v 3 18 2
v 3 18 -1
v 3 22 2
v 3 22 -1
v 4 8 1
v 4 8 -0
v 4 15 1
v 4 15 -0
v -2 18 3
v -2 22 3
v 2 18 3
v 2 22 3
v -3 18 2
v -3 22 2
v -2 0 2
v -2 1 2
v -2 9 2
v -2 16 2
v -2 17 2
v -2 18 2
v -2 22 2
v -2 23 2
v -1 0 2
v -1 1 2
v 1 0 2
v 1 1 2
v 2 0 2
v 2 1 2
v 2 9 2
v 2 16 2
v 2 17 2
v 2 18 2
v 2 22 2
v 2 23 2
v 3 18 2
v 3 22 2
v -4 8 1
v -4 15 1
v -3 8 1
v -3 9 1
v -3 15 1
v -2 1 1
v -2 8 1
v -2 9 1
v -2 15 1
v -1 1 1
v -1 8 1
v -1 16 1
v -1 17 1
v 1 1 1
v 1 8 1
v 1 16 1
v 1 17 1
v 2 1 1
v 2 8 1
v 2 9 1
v 2 15 1
v 3 8 1
v 3 9 1
v 3 15 1
v 4 8 1
v 4 15 1
v -4 8 -0
v -4 15 -0
v -3 8 -0
v -3 9 -0
v -3 15 -0
v -2 0 -0
v -2 8 -0
v -2 9 -0
v -2 15 -0
v -1 0 -0
v -1 8 -0
v -1 16 -0
v -1 17 -0
v 1 0 -0
v 1 8 -0
v 1 16 -0
v 1 17 -0
v 2 0 -0
v 2 8 -0
v 2 9 -0
v 2 15 -0
v 3 8 -0
v 3 9 -0
v 3 15 -0
v 4 8 -0
v 4 15 -0
v -3 18 -1
v -3 22 -1
v -2 9 -1
v -2 16 -1
v -2 17 -1
v -2 18 -1
v -2 22 -1
v -2 23 -1
v 2 9 -1
v 2 16 -1
v 2 17 -1
v 2 18 -1
v 2 22 -1
v 2 23 -1
v 3 18 -1
v 3 22 -1
v -2 18 -2
v -2 22 -2
v 2 18 -2
v 2 22 -2
v -2 0 2
v -1 0 2
v 1 0 2
v 2 0 2
v -2 0 -0
v -1 0 -0
v 1 0 -0
v 2 0 -0
v -4 8 1
v -3 8 1
v -1 8 1
v 1 8 1
v 3 8 1
v 4 8 1
v -4 8 -0
v -3 8 -0
v -1 8 -0
v 1 8 -0
v 3 8 -0
v 4 8 -0
v -2 9 2
v 2 9 2
v -3 9 1
v -2 9 1
v 2 9 1
v 3 9 1
v -3 9 -0
v -2 9 -0
v 2 9 -0
v 3 9 -0
v -2 9 -1
v 2 9 -1
v -2 17 2
v 2 17 2
v -1 17 1
v 1 17 1
v -1 17 -0
v 1 17 -0
v -2 17 -1
v 2 17 -1
v -2 18 3
v 2 18 3
v -3 18 2
v -2 18 2
v 2 18 2
v 3 18 2
v -3 18 -1
v -2 18 -1
v 2 18 -1
v 3 18 -1
v -2 18 -2
v 2 18 -2
v -2 1 2
v -1 1 2
v 1 1 2
v 2 1 2
v -2 1 1
v -1 1 1
v 1 1 1
v 2 1 1
v -4 15 1
v -3 15 1
v -2 15 1
v 2 15 1
v 3 15 1
v 4 15 1
v -4 15 -0
v -3 15 -0
v -2 15 -0
v 2 15 -0
v 3 15 -0
v 4 15 -0
v -2 16 2
v 2 16 2
v -1 16 1
v 1 16 1
v -1 16 -0
v 1 16 -0
v -2 16 -1
v 2 16 -1
v -2 22 3
v 2 22 3
v -3 22 2
v -2 22 2
v 2 22 2
v 3 22 2
v -3 22 -1
v -2 22 -1
v 2 22 -1
v 3 22 -1
v -2 22 -2
v 2 22 -2
v -2 23 2
v 2 23 2
v -2 23 -1
v 2 23 -1

# faces
f 3/1/1 2/1/1 1/1/1
f 4/1/1 2/1/1 3/1/1
f 7/2/1 6/2/1 5/2/1
f 8/2/1 6/2/1 7/2/1
f 11/4/1 10/4/1 9/4/1
f 12/4/1 10/4/1 11/4/1
f 13/4/1 10/4/1 12/4/1
f 14/4/1 10/4/1 13/4/1
f 16/3/1 14/3/1 13/3/1
f 17/3/1 14/3/1 16/3/1
f 19/3/1 16/3/1 15/3/1
f 20/3/1 18/3/1 17/3/1
f 21/3/1 19/3/1 15/3/1
f 21/3/1 20/3/1 19/3/1
f 22/3/1 18/3/1 20/3/1
f 22/3/1 20/3/1 21/3/1
f 26/2/1 24/2/1 23/2/1
f 27/2/1 24/2/1 26/2/1
f 29/2/1 26/2/1 25/2/1
f 30/2/1 26/2/1 29/2/1
f 31/2/1 28/2/1 27/2/1
f 32/2/1 28/2/1 31/2/1
f 33/2/1 31/2/1 30/2/1
f 34/2/1 31/2/1 33/2/1
f 37/3/1 36/3/1 35/3/1
f 38/3/1 36/3/1 37/3/1
f 41/4/1 40/4/1 39/4/1
f 42/4/1 40/4/1 41/4/1
f 43/4/1 40/4/1 42/4/1
f 44/4/1 40/4/1 43/4/1
f 47/1/1 46/1/1 45/1/1
f 48/1/1 46/1/1 47/1/1
f 49/1/2 50/1/2 51/1/2
f 51/1/2 50/1/2 52/1/2
f 53/4/2 54/4/2 55/4/2
f 55/4/2 54/4/2 56/4/2
f 56/4/2 54/4/2 57/4/2
f 57/4/2 54/4/2 58/4/2
f 59/3/2 60/3/2 61/3/2
f 61/3/2 60/3/2 62/3/2
f 63/4/2 64/4/2 65/4/2
f 65/4/2 64/4/2 66/4/2
f 66/4/2 64/4/2 67/4/2
f 67/4/2 64/4/2 68/4/2
f 67/3/2 68/3/2 70/3/2
f 70/3/2 68/3/2 71/3/2
f 69/3/2 70/3/2 73/3/2
f 71/3/2 72/3/2 74/3/2
f 69/3/2 73/3/2 75/3/2
f 73/3/2 74/3/2 75/3/2
f 74/3/2 72/3/2 76/3/2
f 75/3/2 74/3/2 76/3/2
f 77/2/2 78/2/2 80/2/2
f 80/2/2 78/2/2 81/2/2
f 79/2/2 80/2/2 83/2/2
f 83/2/2 80/2/2 84/2/2
f 81/2/2 82/2/2 85/2/2
f 85/2/2 82/2/2 86/2/2
f 84/2/2 85/2/2 87/2/2
f 87/2/2 85/2/2 88/2/2
f 89/2/2 90/2/2 91/2/2
f 91/2/2 90/2/2 92/2/2
f 93/1/2 94/1/2 95/1/2
f 95/1/2 94/1/2 96/1/2
f 99/2/3 98/2/3 97/2/3
f 100/2/3 98/2/3 99/2/3
f 108/2/3 102/2/3 101/2/3
f 109/2/3 102/2/3 108/2/3
f 111/4/3 104/4/3 103/4/3
f 112/4/3 104/4/3 111/4/3
f 115/4/3 114/4/3 113/4/3
f 116/4/3 114/4/3 115/4/3
f 117/3/3 106/3/3 105/3/3
f 118/3/3 106/3/3 117/3/3
f 119/2/3 108/2/3 107/2/3
f 120/2/3 108/2/3 119/2/3
f 121/2/3 110/2/3 109/2/3
f 122/2/3 110/2/3 121/2/3
f 123/2/3 121/2/3 120/2/3
f 124/2/3 121/2/3 123/2/3
f 127/1/3 126/1/3 125/1/3
f 128/1/3 126/1/3 127/1/3
f 129/1/3 126/1/3 128/1/3
f 132/3/3 129/3/3 128/3/3
f 133/3/3 129/3/3 132/3/3
f 134/4/3 131/4/3 130/4/3
f 135/3/3 132/3/3 131/3/3
f 135/4/3 131/4/3 134/4/3
f 139/3/3 132/3/3 135/3/3
f 140/3/3 137/3/3 136/3/3
f 141/3/3 137/3/3 140/3/3
f 142/4/3 139/4/3 138/4/3
f 143/3/3 132/3/3 139/3/3
f 143/4/3 139/4/3 142/4/3
f 144/3/3 132/3/3 143/3/3
f 147/3/3 145/3/3 144/3/3
f 148/3/3 145/3/3 147/3/3
f 149/1/3 147/1/3 146/1/3
f 149/1/3 148/1/3 147/1/3
f 150/1/3 148/1/3 149/1/3
f 151/1/4 152/1/4 153/1/4
f 153/1/4 152/1/4 154/1/4
f 154/1/4 152/1/4 155/1/4
f 154/3/4 155/3/4 158/3/4
f 158/3/4 155/3/4 159/3/4
f 156/4/4 157/4/4 160/4/4
f 157/3/4 158/3/4 161/3/4
f 160/4/4 157/4/4 161/4/4
f 161/3/4 158/3/4 165/3/4
f 162/3/4 163/3/4 166/3/4
f 166/3/4 163/3/4 167/3/4
f 164/4/4 165/4/4 168/4/4
f 165/3/4 158/3/4 169/3/4
f 168/4/4 165/4/4 169/4/4
f 169/3/4 158/3/4 170/3/4
f 170/3/4 171/3/4 173/3/4
f 173/3/4 171/3/4 174/3/4
f 172/1/4 173/1/4 175/1/4
f 173/1/4 174/1/4 175/1/4
f 175/1/4 174/1/4 176/1/4
f 177/2/4 178/2/4 182/2/4
f 182/2/4 178/2/4 183/2/4
f 179/3/4 180/3/4 185/3/4
f 185/3/4 180/3/4 186/3/4
f 181/2/4 182/2/4 187/2/4
f 187/2/4 182/2/4 188/2/4
f 183/2/4 184/2/4 189/2/4
f 189/2/4 184/2/4 190/2/4
f 188/2/4 189/2/4 191/2/4
f 191/2/4 189/2/4 192/2/4
f 193/2/4 194/2/4 195/2/4
f 195/2/4 194/2/4 196/2/4
f 201/4/5 198/4/5 197/4/5
f 202/4/5 198/4/5 201/4/5
f 203/4/5 200/4/5 199/4/5
f 204/4/5 200/4/5 203/4/5
f 211/1/5 206/1/5 205/1/5
f 212/1/5 206/1/5 211/1/5
f 213/3/5 208/3/5 207/3/5
f 214/3/5 208/3/5 213/3/5
f 215/1/5 210/1/5 209/1/5
f 216/1/5 210/1/5 215/1/5
f 220/3/5 218/3/5 217/3/5
f 221/3/5 218/3/5 220/3/5
f 223/3/5 220/3/5 219/3/5
f 224/3/5 220/3/5 223/3/5
f 225/3/5 222/3/5 221/3/5
f 226/3/5 222/3/5 225/3/5
f 227/3/5 225/3/5 224/3/5
f 228/3/5 225/3/5 227/3/5
f 231/2/5 230/2/5 229/2/5
f 232/2/5 230/2/5 231/2/5
f 233/2/5 231/2/5 229/2/5
f 234/2/5 230/2/5 232/2/5
f 235/2/5 233/2/5 229/2/5
f 235/2/5 234/2/5 233/2/5
f 236/2/5 230/2/5 234/2/5
f 236/2/5 234/2/5 235/2/5
f 240/2/5 238/2/5 237/2/5
f 241/2/5 238/2/5 240/2/5
f 243/2/5 240/2/5 239/2/5
f 244/2/5 240/2/5 243/2/5
f 245/2/5 242/2/5 241/2/5
f 246/2/5 242/2/5 245/2/5
f 247/2/5 245/2/5 244/2/5
f 248/2/5 245/2/5 247/2/5
f 249/4/6 250/4/6 253/4/6
f 253/4/6 250/4/6 254/4/6
f 251/4/6 252/4/6 255/4/6
f 255/4/6 252/4/6 256/4/6
f 257/1/6 258/1/6 263/1/6
f 258/3/6 259/3/6 264/3/6
f 263/1/6 258/1/6 264/1/6
f 264/3/6 259/3/6 265/3/6
f 260/3/6 261/3/6 266/3/6
f 261/1/6 262/1/6 267/1/6
f 266/3/6 261/3/6 267/3/6
f 267/1/6 262/1/6 268/1/6
f 269/3/6 270/3/6 271/3/6
f 271/3/6 270/3/6 272/3/6
f 269/3/6 271/3/6 273/3/6
f 272/3/6 270/3/6 274/3/6
f 269/3/6 273/3/6 275/3/6
f 273/3/6 274/3/6 275/3/6
f 274/3/6 270/3/6 276/3/6
f 275/3/6 274/3/6 276/3/6
f 277/2/6 278/2/6 280/2/6
f 280/2/6 278/2/6 281/2/6
f 279/2/6 280/2/6 283/2/6
f 283/2/6 280/2/6 284/2/6
f 281/2/6 282/2/6 285/2/6
f 285/2/6 282/2/6 286/2/6
f 284/2/6 285/2/6 287/2/6
f 287/2/6 285/2/6 288/2/6
f 289/2/6 290/2/6 291/2/6
f 291/2/6 290/2/6 292/2/6
